<?xml version="1.0" encoding="UTF-8"?>
<svg id="_圖層_2" data-name="圖層_2" xmlns="http://www.w3.org/2000/svg" version="1.1" xmlns:xlink="http://www.w3.org/1999/xlink" viewBox="0 0 553.34 526.34">
  <!-- Generator: Adobe Illustrator 30.2.1, SVG Export Plug-In . SVG Version: 2.1.1 Build 1)  -->
  <defs>
    <style>
      .st0 {
        fill: #a855f7;
      }

      .st1 {
        fill: #fff;
      }

      .st2 {
        fill: #38bdf8;
      }

      .st3 {
        fill: #ec4899;
      }

      .st4 {
        fill: url(#_未命名漸層_101);
      }
    </style>
    <linearGradient id="_未命名漸層_101" data-name="未命名漸層 101" x1="108.2" y1="305.41" x2="316.82" y2="305.41" gradientUnits="userSpaceOnUse">
      <stop offset="0" stop-color="#ec4899"/>
      <stop offset="1" stop-color="#a855f7"/>
    </linearGradient>
  </defs>
  <g>
    <path class="st2" d="M395.33,301.03l-113.03,41.14,23.9-51.27,64.11-23.33c29.3-10.66,31.08-51.43,2.82-64.61l-120.07-55.99-55.84,119.75-53.16,19.35,72.75-156,16.9-36.26,36.25,16.91,131.01,61.09c56.52,26.35,52.96,107.89-5.64,129.22Z"/>
    <polygon class="st4" points="316.82 244.47 269.01 347.01 215.85 366.35 239.76 315.09 108.2 362.97 132.11 311.7 316.82 244.47"/>
    <rect class="st2" x="150.88" y="66.58" width="40" height="40" transform="translate(20.2 204.86) rotate(-65)"/>
    <rect class="st3" x="111.34" y="64.51" width="20" height="20" transform="translate(2.53 152.99) rotate(-65)"/>
    <rect class="st0" x="112.56" y="109.22" width="20" height="20" transform="translate(-37.28 179.91) rotate(-65)"/>
  </g>
  <g>
    <rect class="st3" x="403.29" y="395.05" width="20" height="20" transform="translate(-128.47 608.44) rotate(-65)"/>
    <path class="st1" d="M408.06,466.34v-40h10v40h-10Z"/>
    <polygon class="st1" points="153 434.34 153 426.34 133 426.34 123 426.34 123 434.34 123 442.34 123 450.34 123 458.34 123 466.34 133 466.34 153 466.34 153 458.34 133 458.34 133 450.34 151 450.34 151 442.34 133 442.34 133 434.34 153 434.34"/>
    <polygon class="st1" points="453.21 434.34 453.21 426.34 433.21 426.34 423.21 426.34 423.21 434.34 423.21 442.34 423.21 450.34 423.21 458.34 423.21 466.34 433.21 466.34 453.21 466.34 453.21 458.34 433.21 458.34 433.21 450.34 451.21 450.34 451.21 442.34 433.21 442.34 433.21 434.34 453.21 434.34"/>
    <path class="st1" d="M304.96,426.34c-11.05,0-20,8.95-20,20s8.95,20,20,20,20-8.95,20-20-8.95-20-20-20ZM304.96,456.34c-5.52,0-10-4.48-10-10s4.48-10,10-10,10,4.48,10,10-4.48,10-10,10Z"/>
    <path class="st1" d="M276.58,448.35c-.12.07-.24.15-.36.22v-.99l.36.77c3.24-2.15,5.38-5.83,5.38-10.01s-2.29-8.13-5.74-10.24c-1.82-1.12-3.97-1.76-6.26-1.76h-20v40h10v-16h6.5l7.47,16h11.03l-8.38-17.99ZM259.96,434.34h8c2.21,0,4,1.79,4,4s-1.79,4-4,4h-8v-8Z"/>
    <path class="st1" d="M484.96,448.35c-.12.07-.24.15-.36.22v-.99l.36.77c3.24-2.15,5.38-5.83,5.38-10.01s-2.29-8.13-5.74-10.24c-1.82-1.12-3.97-1.76-6.26-1.76h-20v40h10v-16h6.5l7.47,16h11.03l-8.38-17.99ZM468.34,434.34h8c2.21,0,4,1.79,4,4s-1.79,4-4,4h-8v-8Z"/>
    <polygon class="st1" points="403.06 426.34 390.56 426.34 380.56 426.34 368.06 426.34 368.06 434.34 380.56 434.34 380.56 466.34 390.56 466.34 390.56 434.34 403.06 434.34 403.06 426.34"/>
    <path class="st1" d="M276.58,448.35c-.12.07-.24.15-.36.22v-.99l.36.77Z"/>
    <polygon class="st1" points="153 426.34 171.65 466.34 182.68 466.34 164.03 426.34 153 426.34"/>
    <polygon class="st1" points="190.29 426.34 171.64 466.34 182.67 466.34 201.32 426.34 190.29 426.34"/>
    <path class="st1" d="M276.58,448.35c-.12.07-.24.15-.36.22v-.99l.36.77Z"/>
    <rect class="st1" x="328.06" y="426.34" width="10" height="40"/>
    <polygon class="st1" points="353.06 426.34 353.06 442.68 345.44 426.34 340.06 426.34 340.06 438.47 353.06 466.34 363.06 466.34 363.06 426.34 353.06 426.34"/>
    <polygon class="st1" points="225.59 426.34 218.13 442.34 242.49 442.34 238.76 450.34 214.39 450.34 206.93 466.34 193.69 466.34 212.35 426.34 216.08 418.34 253.68 418.34 249.95 426.34 225.59 426.34"/>
    <path class="st1" d="M120,442.34c0,9.84-5.92,18.3-14.4,21.99-2.94,1.3-6.18,2.01-9.6,2.01h-17.24l4.66-10h9.82c8.28,0,15-6.72,15-15s-6.72-15-15-15h-1.34l-5.86,12.56-8.14,17.44-4.66,10h-13.24l18.66-40,3.73-8h13.61c4.7,0,9.08,1.35,12.78,3.69,6.74,4.24,11.22,11.75,11.22,20.31Z"/>
  </g>
</svg>